<mxfile host="app.diagrams.net" agent="Mozilla/5.0 (Windows NT 10.0; Win64; x64) AppleWebKit/537.36 (KHTML, like Gecko) Chrome/136.0.0.0 Safari/537.36" version="27.0.9">
  <diagram name="Page-1" id="oZOQzWWVFbYoyTmrXJoD">
    <mxGraphModel dx="819" dy="411" grid="1" gridSize="10" guides="1" tooltips="1" connect="1" arrows="1" fold="1" page="1" pageScale="1" pageWidth="850" pageHeight="1100" math="0" shadow="0">
      <root>
        <mxCell id="0" />
        <mxCell id="1" parent="0" />
        <mxCell id="-niPyfAAyTAKl9RtmtWB-1" value="Start" style="ellipse;whiteSpace=wrap;html=1;" parent="1" vertex="1">
          <mxGeometry x="21" y="150" width="120" height="80" as="geometry" />
        </mxCell>
        <mxCell id="-niPyfAAyTAKl9RtmtWB-2" value="&lt;font style=&quot;font-size: 11px;&quot;&gt;Already have an account?&lt;/font&gt;" style="rhombus;whiteSpace=wrap;html=1;" parent="1" vertex="1">
          <mxGeometry x="341" y="140" width="100" height="100" as="geometry" />
        </mxCell>
        <mxCell id="-niPyfAAyTAKl9RtmtWB-4" value="" style="endArrow=classic;html=1;rounded=0;" parent="1" edge="1">
          <mxGeometry width="50" height="50" relative="1" as="geometry">
            <mxPoint x="444" y="191.66000000000008" as="sourcePoint" />
            <mxPoint x="471" y="192" as="targetPoint" />
          </mxGeometry>
        </mxCell>
        <mxCell id="-niPyfAAyTAKl9RtmtWB-5" value="Get Started" style="shape=parallelogram;perimeter=parallelogramPerimeter;whiteSpace=wrap;html=1;fixedSize=1;" parent="1" vertex="1">
          <mxGeometry x="181" y="160" width="120" height="60" as="geometry" />
        </mxCell>
        <mxCell id="-niPyfAAyTAKl9RtmtWB-7" value="" style="endArrow=classic;html=1;rounded=0;" parent="1" edge="1">
          <mxGeometry width="50" height="50" relative="1" as="geometry">
            <mxPoint x="390.5000000000001" y="250" as="sourcePoint" />
            <mxPoint x="141" y="310" as="targetPoint" />
            <Array as="points">
              <mxPoint x="391" y="280" />
              <mxPoint x="141" y="280" />
            </Array>
          </mxGeometry>
        </mxCell>
        <mxCell id="-niPyfAAyTAKl9RtmtWB-9" value="Log in" style="rounded=0;whiteSpace=wrap;html=1;" parent="1" vertex="1">
          <mxGeometry x="91" y="320" width="120" height="60" as="geometry" />
        </mxCell>
        <mxCell id="-niPyfAAyTAKl9RtmtWB-10" value="Yes" style="text;html=1;align=center;verticalAlign=middle;resizable=0;points=[];autosize=1;strokeColor=none;fillColor=none;" parent="1" vertex="1">
          <mxGeometry x="341" y="250" width="40" height="30" as="geometry" />
        </mxCell>
        <mxCell id="-niPyfAAyTAKl9RtmtWB-11" value="No" style="text;html=1;align=center;verticalAlign=middle;resizable=0;points=[];autosize=1;strokeColor=none;fillColor=none;" parent="1" vertex="1">
          <mxGeometry x="431" y="162" width="40" height="30" as="geometry" />
        </mxCell>
        <mxCell id="-niPyfAAyTAKl9RtmtWB-12" value="" style="endArrow=classic;html=1;rounded=0;" parent="1" edge="1">
          <mxGeometry width="50" height="50" relative="1" as="geometry">
            <mxPoint x="300.9999999999999" y="191" as="sourcePoint" />
            <mxPoint x="331" y="191" as="targetPoint" />
          </mxGeometry>
        </mxCell>
        <mxCell id="-niPyfAAyTAKl9RtmtWB-13" value="" style="endArrow=classic;html=1;rounded=0;" parent="1" edge="1">
          <mxGeometry width="50" height="50" relative="1" as="geometry">
            <mxPoint x="151" y="190" as="sourcePoint" />
            <mxPoint x="181" y="190" as="targetPoint" />
          </mxGeometry>
        </mxCell>
        <mxCell id="-niPyfAAyTAKl9RtmtWB-14" value="Home Page" style="rounded=0;whiteSpace=wrap;html=1;" parent="1" vertex="1">
          <mxGeometry x="91" y="430" width="120" height="60" as="geometry" />
        </mxCell>
        <mxCell id="-niPyfAAyTAKl9RtmtWB-16" value="" style="endArrow=classic;html=1;rounded=0;" parent="1" edge="1">
          <mxGeometry width="50" height="50" relative="1" as="geometry">
            <mxPoint x="150.76" y="390" as="sourcePoint" />
            <mxPoint x="151.0999999999999" y="420" as="targetPoint" />
          </mxGeometry>
        </mxCell>
        <mxCell id="-niPyfAAyTAKl9RtmtWB-17" value="Clicks Book Now" style="rounded=0;whiteSpace=wrap;html=1;" parent="1" vertex="1">
          <mxGeometry x="270.5" y="428" width="120" height="60" as="geometry" />
        </mxCell>
        <mxCell id="-niPyfAAyTAKl9RtmtWB-18" value="" style="endArrow=classic;html=1;rounded=0;" parent="1" edge="1">
          <mxGeometry width="50" height="50" relative="1" as="geometry">
            <mxPoint x="221" y="460" as="sourcePoint" />
            <mxPoint x="261" y="460" as="targetPoint" />
          </mxGeometry>
        </mxCell>
        <mxCell id="-niPyfAAyTAKl9RtmtWB-20" value="&lt;div&gt;&lt;b&gt;&lt;br&gt;&lt;/b&gt;&lt;/div&gt;&lt;b&gt;Booking Page&lt;/b&gt;&lt;div&gt;User Selects:&lt;br&gt;Date &amp;amp;&lt;br&gt;Delivery Method &amp;amp;&lt;br&gt;Time &amp;amp;&lt;div&gt;Services &amp;amp;&lt;/div&gt;&lt;div&gt;Detergents&lt;br&gt;&lt;div&gt;&lt;br&gt;&lt;/div&gt;&lt;/div&gt;&lt;/div&gt;" style="shape=parallelogram;perimeter=parallelogramPerimeter;whiteSpace=wrap;html=1;fixedSize=1;" parent="1" vertex="1">
          <mxGeometry x="457.5" y="403" width="180" height="110" as="geometry" />
        </mxCell>
        <mxCell id="-niPyfAAyTAKl9RtmtWB-21" value="Click Next Button" style="rounded=0;whiteSpace=wrap;html=1;" parent="1" vertex="1">
          <mxGeometry x="674.5" y="448" width="120" height="60" as="geometry" />
        </mxCell>
        <mxCell id="-niPyfAAyTAKl9RtmtWB-22" value="" style="endArrow=classic;html=1;rounded=0;" parent="1" edge="1">
          <mxGeometry width="50" height="50" relative="1" as="geometry">
            <mxPoint x="410.5" y="458" as="sourcePoint" />
            <mxPoint x="450.5" y="458" as="targetPoint" />
          </mxGeometry>
        </mxCell>
        <mxCell id="-niPyfAAyTAKl9RtmtWB-23" value="" style="endArrow=classic;html=1;rounded=0;" parent="1" edge="1">
          <mxGeometry width="50" height="50" relative="1" as="geometry">
            <mxPoint x="636.5899999999999" y="450" as="sourcePoint" />
            <mxPoint x="670.5" y="450" as="targetPoint" />
          </mxGeometry>
        </mxCell>
        <mxCell id="-niPyfAAyTAKl9RtmtWB-25" value="Show Booking Summary" style="shape=parallelogram;perimeter=parallelogramPerimeter;whiteSpace=wrap;html=1;fixedSize=1;" parent="1" vertex="1">
          <mxGeometry x="674.5" y="590" width="120" height="60" as="geometry" />
        </mxCell>
        <mxCell id="-niPyfAAyTAKl9RtmtWB-27" value="" style="endArrow=classic;html=1;rounded=0;" parent="1" edge="1">
          <mxGeometry width="50" height="50" relative="1" as="geometry">
            <mxPoint x="734.9699999999999" y="500" as="sourcePoint" />
            <mxPoint x="735" y="560" as="targetPoint" />
          </mxGeometry>
        </mxCell>
        <mxCell id="-niPyfAAyTAKl9RtmtWB-28" value="" style="endArrow=classic;html=1;rounded=0;" parent="1" edge="1">
          <mxGeometry width="50" height="50" relative="1" as="geometry">
            <mxPoint x="675.5" y="599.47" as="sourcePoint" />
            <mxPoint x="649.03" y="599.47" as="targetPoint" />
          </mxGeometry>
        </mxCell>
        <mxCell id="-niPyfAAyTAKl9RtmtWB-29" value="User Select Payment Method" style="rounded=0;whiteSpace=wrap;html=1;" parent="1" vertex="1">
          <mxGeometry x="526" y="570" width="120" height="60" as="geometry" />
        </mxCell>
        <mxCell id="-niPyfAAyTAKl9RtmtWB-31" value="" style="endArrow=classic;html=1;rounded=0;" parent="1" edge="1">
          <mxGeometry width="50" height="50" relative="1" as="geometry">
            <mxPoint x="523" y="609.47" as="sourcePoint" />
            <mxPoint x="473" y="609.47" as="targetPoint" />
          </mxGeometry>
        </mxCell>
        <mxCell id="-niPyfAAyTAKl9RtmtWB-32" value="System saves booking information" style="rounded=0;whiteSpace=wrap;html=1;" parent="1" vertex="1">
          <mxGeometry x="342.5" y="720" width="120" height="60" as="geometry" />
        </mxCell>
        <mxCell id="-niPyfAAyTAKl9RtmtWB-33" value="Admin receives booking request" style="rounded=0;whiteSpace=wrap;html=1;" parent="1" vertex="1">
          <mxGeometry x="340" y="820" width="120" height="60" as="geometry" />
        </mxCell>
        <mxCell id="-niPyfAAyTAKl9RtmtWB-35" value="Admin assigns a rider for pickup" style="rounded=0;whiteSpace=wrap;html=1;" parent="1" vertex="1">
          <mxGeometry x="244" y="1125" width="120" height="60" as="geometry" />
        </mxCell>
        <mxCell id="-niPyfAAyTAKl9RtmtWB-36" value="Rider recieves pickup details" style="rounded=0;whiteSpace=wrap;html=1;" parent="1" vertex="1">
          <mxGeometry x="244" y="1225" width="120" height="60" as="geometry" />
        </mxCell>
        <mxCell id="-niPyfAAyTAKl9RtmtWB-41" value="User sets up location&amp;nbsp;" style="shape=parallelogram;perimeter=parallelogramPerimeter;whiteSpace=wrap;html=1;fixedSize=1;" parent="1" vertex="1">
          <mxGeometry x="621" y="162" width="150" height="60" as="geometry" />
        </mxCell>
        <mxCell id="-niPyfAAyTAKl9RtmtWB-42" value="Account created" style="rounded=0;whiteSpace=wrap;html=1;" parent="1" vertex="1">
          <mxGeometry x="481" y="320" width="120" height="60" as="geometry" />
        </mxCell>
        <mxCell id="-niPyfAAyTAKl9RtmtWB-43" value="" style="endArrow=classic;html=1;rounded=0;" parent="1" edge="1">
          <mxGeometry width="50" height="50" relative="1" as="geometry">
            <mxPoint x="591" y="192" as="sourcePoint" />
            <mxPoint x="621" y="192" as="targetPoint" />
          </mxGeometry>
        </mxCell>
        <mxCell id="-niPyfAAyTAKl9RtmtWB-44" value="" style="endArrow=classic;html=1;rounded=0;" parent="1" edge="1">
          <mxGeometry width="50" height="50" relative="1" as="geometry">
            <mxPoint x="693.5" y="230" as="sourcePoint" />
            <mxPoint x="611" y="350" as="targetPoint" />
            <Array as="points">
              <mxPoint x="694" y="350" />
            </Array>
          </mxGeometry>
        </mxCell>
        <mxCell id="-niPyfAAyTAKl9RtmtWB-45" value="" style="endArrow=classic;html=1;rounded=0;" parent="1" edge="1">
          <mxGeometry width="50" height="50" relative="1" as="geometry">
            <mxPoint x="456" y="349.67999999999995" as="sourcePoint" />
            <mxPoint x="246" y="349.67999999999995" as="targetPoint" />
          </mxGeometry>
        </mxCell>
        <mxCell id="-niPyfAAyTAKl9RtmtWB-47" value="User click Confirm or cancel button?" style="rhombus;whiteSpace=wrap;html=1;" parent="1" vertex="1">
          <mxGeometry x="330" y="550" width="140" height="120" as="geometry" />
        </mxCell>
        <mxCell id="-niPyfAAyTAKl9RtmtWB-49" value="" style="endArrow=classic;html=1;rounded=0;" parent="1" edge="1">
          <mxGeometry width="50" height="50" relative="1" as="geometry">
            <mxPoint x="401" y="680" as="sourcePoint" />
            <mxPoint x="401" y="710" as="targetPoint" />
          </mxGeometry>
        </mxCell>
        <mxCell id="-niPyfAAyTAKl9RtmtWB-53" value="Cancel" style="text;html=1;align=center;verticalAlign=middle;resizable=0;points=[];autosize=1;strokeColor=none;fillColor=none;" parent="1" vertex="1">
          <mxGeometry x="256" y="585" width="60" height="30" as="geometry" />
        </mxCell>
        <mxCell id="-niPyfAAyTAKl9RtmtWB-54" value="Confirm" style="text;html=1;align=center;verticalAlign=middle;resizable=0;points=[];autosize=1;strokeColor=none;fillColor=none;" parent="1" vertex="1">
          <mxGeometry x="401" y="680" width="70" height="30" as="geometry" />
        </mxCell>
        <mxCell id="-niPyfAAyTAKl9RtmtWB-56" value="Confirmed" style="text;html=1;align=center;verticalAlign=middle;resizable=0;points=[];autosize=1;strokeColor=none;fillColor=none;" parent="1" vertex="1">
          <mxGeometry x="353" y="1060" width="80" height="30" as="geometry" />
        </mxCell>
        <mxCell id="-niPyfAAyTAKl9RtmtWB-59" value="Declined" style="text;html=1;align=center;verticalAlign=middle;resizable=0;points=[];autosize=1;strokeColor=none;fillColor=none;" parent="1" vertex="1">
          <mxGeometry x="251" y="980" width="70" height="30" as="geometry" />
        </mxCell>
        <mxCell id="-niPyfAAyTAKl9RtmtWB-60" value="User&amp;nbsp; Sign up" style="shape=parallelogram;perimeter=parallelogramPerimeter;whiteSpace=wrap;html=1;fixedSize=1;" parent="1" vertex="1">
          <mxGeometry x="471" y="162" width="120" height="60" as="geometry" />
        </mxCell>
        <mxCell id="-niPyfAAyTAKl9RtmtWB-61" value="System send booking confirmation to user" style="shape=parallelogram;perimeter=parallelogramPerimeter;whiteSpace=wrap;html=1;fixedSize=1;" parent="1" vertex="1">
          <mxGeometry x="398" y="1125" width="146" height="60" as="geometry" />
        </mxCell>
        <mxCell id="-niPyfAAyTAKl9RtmtWB-62" value="User recives booking confirmation" style="shape=parallelogram;perimeter=parallelogramPerimeter;whiteSpace=wrap;html=1;fixedSize=1;" parent="1" vertex="1">
          <mxGeometry x="390.5" y="1225" width="161" height="60" as="geometry" />
        </mxCell>
        <mxCell id="-niPyfAAyTAKl9RtmtWB-63" value="" style="endArrow=classic;html=1;rounded=0;" parent="1" edge="1">
          <mxGeometry width="50" height="50" relative="1" as="geometry">
            <mxPoint x="405" y="1050" as="sourcePoint" />
            <mxPoint x="475" y="1090" as="targetPoint" />
            <Array as="points">
              <mxPoint x="405" y="1060" />
              <mxPoint x="475" y="1060" />
            </Array>
          </mxGeometry>
        </mxCell>
        <mxCell id="-niPyfAAyTAKl9RtmtWB-64" value="" style="endArrow=classic;html=1;rounded=0;" parent="1" edge="1">
          <mxGeometry width="50" height="50" relative="1" as="geometry">
            <mxPoint x="395" y="1050" as="sourcePoint" />
            <mxPoint x="325" y="1090" as="targetPoint" />
            <Array as="points">
              <mxPoint x="395" y="1060" />
              <mxPoint x="325" y="1060" />
            </Array>
          </mxGeometry>
        </mxCell>
        <mxCell id="-niPyfAAyTAKl9RtmtWB-65" value="" style="endArrow=classic;html=1;rounded=0;" parent="1" edge="1">
          <mxGeometry width="50" height="50" relative="1" as="geometry">
            <mxPoint x="304" y="1195" as="sourcePoint" />
            <mxPoint x="304" y="1215" as="targetPoint" />
          </mxGeometry>
        </mxCell>
        <mxCell id="-niPyfAAyTAKl9RtmtWB-66" value="" style="endArrow=classic;html=1;rounded=0;" parent="1" edge="1">
          <mxGeometry width="50" height="50" relative="1" as="geometry">
            <mxPoint x="474" y="1195" as="sourcePoint" />
            <mxPoint x="474" y="1215" as="targetPoint" />
          </mxGeometry>
        </mxCell>
        <mxCell id="-niPyfAAyTAKl9RtmtWB-69" value="Wait until booking day" style="rounded=0;whiteSpace=wrap;html=1;" parent="1" vertex="1">
          <mxGeometry x="324" y="1325" width="120" height="60" as="geometry" />
        </mxCell>
        <mxCell id="-niPyfAAyTAKl9RtmtWB-70" value="" style="endArrow=classic;html=1;rounded=0;" parent="1" edge="1">
          <mxGeometry width="50" height="50" relative="1" as="geometry">
            <mxPoint x="274" y="1295" as="sourcePoint" />
            <mxPoint x="314" y="1345" as="targetPoint" />
            <Array as="points">
              <mxPoint x="274" y="1345" />
            </Array>
          </mxGeometry>
        </mxCell>
        <mxCell id="-niPyfAAyTAKl9RtmtWB-71" value="" style="endArrow=classic;html=1;rounded=0;" parent="1" edge="1">
          <mxGeometry width="50" height="50" relative="1" as="geometry">
            <mxPoint x="504" y="1295" as="sourcePoint" />
            <mxPoint x="454" y="1345" as="targetPoint" />
            <Array as="points">
              <mxPoint x="504" y="1345" />
            </Array>
          </mxGeometry>
        </mxCell>
        <mxCell id="-niPyfAAyTAKl9RtmtWB-72" value="Is the day of booking today?" style="rhombus;whiteSpace=wrap;html=1;" parent="1" vertex="1">
          <mxGeometry x="319" y="1425" width="130" height="130" as="geometry" />
        </mxCell>
        <mxCell id="-niPyfAAyTAKl9RtmtWB-73" value="" style="endArrow=classic;html=1;rounded=0;" parent="1" edge="1">
          <mxGeometry width="50" height="50" relative="1" as="geometry">
            <mxPoint x="384" y="1395" as="sourcePoint" />
            <mxPoint x="384" y="1415" as="targetPoint" />
          </mxGeometry>
        </mxCell>
        <mxCell id="-niPyfAAyTAKl9RtmtWB-74" value="" style="endArrow=classic;html=1;rounded=0;" parent="1" edge="1">
          <mxGeometry width="50" height="50" relative="1" as="geometry">
            <mxPoint x="384" y="1565" as="sourcePoint" />
            <mxPoint x="384" y="1595" as="targetPoint" />
          </mxGeometry>
        </mxCell>
        <mxCell id="-niPyfAAyTAKl9RtmtWB-75" value="Yes" style="text;html=1;align=center;verticalAlign=middle;resizable=0;points=[];autosize=1;strokeColor=none;fillColor=none;" parent="1" vertex="1">
          <mxGeometry x="404" y="1563" width="40" height="30" as="geometry" />
        </mxCell>
        <mxCell id="-niPyfAAyTAKl9RtmtWB-76" value="" style="endArrow=classic;html=1;rounded=0;" parent="1" edge="1">
          <mxGeometry width="50" height="50" relative="1" as="geometry">
            <mxPoint x="464" y="1485" as="sourcePoint" />
            <mxPoint x="454" y="1375" as="targetPoint" />
            <Array as="points">
              <mxPoint x="504" y="1485" />
              <mxPoint x="504" y="1375" />
            </Array>
          </mxGeometry>
        </mxCell>
        <mxCell id="-niPyfAAyTAKl9RtmtWB-77" value="No" style="text;html=1;align=center;verticalAlign=middle;resizable=0;points=[];autosize=1;strokeColor=none;fillColor=none;" parent="1" vertex="1">
          <mxGeometry x="464" y="1483" width="40" height="30" as="geometry" />
        </mxCell>
        <mxCell id="-niPyfAAyTAKl9RtmtWB-78" value="" style="endArrow=classic;html=1;rounded=0;" parent="1" edge="1">
          <mxGeometry width="50" height="50" relative="1" as="geometry">
            <mxPoint x="384" y="1684" as="sourcePoint" />
            <mxPoint x="384" y="1714" as="targetPoint" />
          </mxGeometry>
        </mxCell>
        <mxCell id="-niPyfAAyTAKl9RtmtWB-80" value="&lt;font style=&quot;font-size: 11px;&quot;&gt;&lt;br&gt;&lt;/font&gt;&lt;div&gt;&lt;span style=&quot;caret-color: rgba(0, 0, 0, 0);&quot;&gt;&lt;font style=&quot;font-size: 11px;&quot;&gt;User confirms pickup during the scheduled time?&lt;/font&gt;&lt;/span&gt;&lt;/div&gt;" style="rhombus;whiteSpace=wrap;html=1;" parent="1" vertex="1">
          <mxGeometry x="323" y="1718" width="121" height="95" as="geometry" />
        </mxCell>
        <mxCell id="-niPyfAAyTAKl9RtmtWB-81" value="" style="endArrow=classic;html=1;rounded=0;" parent="1" edge="1">
          <mxGeometry width="50" height="50" relative="1" as="geometry">
            <mxPoint x="382" y="1815" as="sourcePoint" />
            <mxPoint x="382" y="1845" as="targetPoint" />
          </mxGeometry>
        </mxCell>
        <mxCell id="-niPyfAAyTAKl9RtmtWB-82" value="Yes" style="text;html=1;align=center;verticalAlign=middle;resizable=0;points=[];autosize=1;strokeColor=none;fillColor=none;" parent="1" vertex="1">
          <mxGeometry x="374" y="1813" width="40" height="30" as="geometry" />
        </mxCell>
        <mxCell id="-niPyfAAyTAKl9RtmtWB-83" value="Send pickup confirmation to user" style="shape=parallelogram;perimeter=parallelogramPerimeter;whiteSpace=wrap;html=1;fixedSize=1;" parent="1" vertex="1">
          <mxGeometry x="324" y="1615" width="130" height="60" as="geometry" />
        </mxCell>
        <mxCell id="-niPyfAAyTAKl9RtmtWB-84" value="Rider picks up laundry" style="rounded=0;whiteSpace=wrap;html=1;" parent="1" vertex="1">
          <mxGeometry x="324" y="1855" width="120" height="60" as="geometry" />
        </mxCell>
        <mxCell id="-niPyfAAyTAKl9RtmtWB-86" value="" style="endArrow=classic;html=1;rounded=0;" parent="1" edge="1">
          <mxGeometry width="50" height="50" relative="1" as="geometry">
            <mxPoint x="312" y="1764.76" as="sourcePoint" />
            <mxPoint x="250" y="1765" as="targetPoint" />
          </mxGeometry>
        </mxCell>
        <mxCell id="-niPyfAAyTAKl9RtmtWB-97" value="" style="endArrow=classic;html=1;rounded=0;" parent="1" edge="1">
          <mxGeometry width="50" height="50" relative="1" as="geometry">
            <mxPoint x="400" y="790" as="sourcePoint" />
            <mxPoint x="400" y="810" as="targetPoint" />
          </mxGeometry>
        </mxCell>
        <mxCell id="-niPyfAAyTAKl9RtmtWB-98" value="" style="endArrow=classic;html=1;rounded=0;" parent="1" edge="1">
          <mxGeometry width="50" height="50" relative="1" as="geometry">
            <mxPoint x="400" y="890" as="sourcePoint" />
            <mxPoint x="400" y="910" as="targetPoint" />
          </mxGeometry>
        </mxCell>
        <mxCell id="-niPyfAAyTAKl9RtmtWB-99" value="" style="endArrow=classic;html=1;rounded=0;" parent="1" edge="1">
          <mxGeometry width="50" height="50" relative="1" as="geometry">
            <mxPoint x="385" y="1920" as="sourcePoint" />
            <mxPoint x="384.82" y="1945" as="targetPoint" />
          </mxGeometry>
        </mxCell>
        <mxCell id="-niPyfAAyTAKl9RtmtWB-101" value="&lt;span style=&quot;caret-color: rgba(0, 0, 0, 0);&quot;&gt;User tracks rider status&lt;/span&gt;" style="shape=parallelogram;perimeter=parallelogramPerimeter;whiteSpace=wrap;html=1;fixedSize=1;" parent="1" vertex="1">
          <mxGeometry x="324" y="1955" width="120" height="60" as="geometry" />
        </mxCell>
        <mxCell id="-niPyfAAyTAKl9RtmtWB-102" value="System update status:&lt;br&gt;Arrived at shop &amp;amp;&amp;nbsp;&lt;br&gt;In progress &amp;amp;&lt;br&gt;ready for delivery" style="shape=parallelogram;perimeter=parallelogramPerimeter;whiteSpace=wrap;html=1;fixedSize=1;" parent="1" vertex="1">
          <mxGeometry x="298.5" y="2063" width="175" height="80" as="geometry" />
        </mxCell>
        <mxCell id="-niPyfAAyTAKl9RtmtWB-103" value="" style="endArrow=classic;html=1;rounded=0;" parent="1" edge="1">
          <mxGeometry width="50" height="50" relative="1" as="geometry">
            <mxPoint x="384" y="2031" as="sourcePoint" />
            <mxPoint x="384" y="2050" as="targetPoint" />
          </mxGeometry>
        </mxCell>
        <mxCell id="-niPyfAAyTAKl9RtmtWB-104" value="Rider delivers laundry to customer" style="rounded=0;whiteSpace=wrap;html=1;" parent="1" vertex="1">
          <mxGeometry x="308" y="2214" width="152" height="60" as="geometry" />
        </mxCell>
        <mxCell id="-niPyfAAyTAKl9RtmtWB-106" value="System updates laundry status to&lt;br&gt;Delivered" style="shape=parallelogram;perimeter=parallelogramPerimeter;whiteSpace=wrap;html=1;fixedSize=1;" parent="1" vertex="1">
          <mxGeometry x="326" y="2414" width="120" height="60" as="geometry" />
        </mxCell>
        <mxCell id="-niPyfAAyTAKl9RtmtWB-107" value="Rider marks laundry as delivered" style="rounded=0;whiteSpace=wrap;html=1;" parent="1" vertex="1">
          <mxGeometry x="308" y="2314" width="152" height="60" as="geometry" />
        </mxCell>
        <mxCell id="-niPyfAAyTAKl9RtmtWB-108" value="User receives delivery confirmation" style="shape=parallelogram;perimeter=parallelogramPerimeter;whiteSpace=wrap;html=1;fixedSize=1;" parent="1" vertex="1">
          <mxGeometry x="306.5" y="2514" width="150" height="60" as="geometry" />
        </mxCell>
        <mxCell id="-niPyfAAyTAKl9RtmtWB-109" value="User clicks confirm delivery" style="rounded=0;whiteSpace=wrap;html=1;" parent="1" vertex="1">
          <mxGeometry x="321.5" y="2614" width="120" height="60" as="geometry" />
        </mxCell>
        <mxCell id="-niPyfAAyTAKl9RtmtWB-110" value="user wants to rate services experience?" style="rhombus;whiteSpace=wrap;html=1;" parent="1" vertex="1">
          <mxGeometry x="315" y="2714" width="140" height="120" as="geometry" />
        </mxCell>
        <mxCell id="-niPyfAAyTAKl9RtmtWB-111" value="User submits rating&amp;nbsp;" style="rounded=0;whiteSpace=wrap;html=1;" parent="1" vertex="1">
          <mxGeometry x="330" y="2894" width="120" height="60" as="geometry" />
        </mxCell>
        <mxCell id="-niPyfAAyTAKl9RtmtWB-112" value="End" style="ellipse;whiteSpace=wrap;html=1;" parent="1" vertex="1">
          <mxGeometry x="330" y="2994" width="120" height="80" as="geometry" />
        </mxCell>
        <mxCell id="-niPyfAAyTAKl9RtmtWB-113" value="" style="endArrow=classic;html=1;rounded=0;" parent="1" edge="1">
          <mxGeometry width="50" height="50" relative="1" as="geometry">
            <mxPoint x="385" y="2844" as="sourcePoint" />
            <mxPoint x="385" y="2884" as="targetPoint" />
          </mxGeometry>
        </mxCell>
        <mxCell id="-niPyfAAyTAKl9RtmtWB-114" value="Yes" style="text;html=1;align=center;verticalAlign=middle;resizable=0;points=[];autosize=1;strokeColor=none;fillColor=none;" parent="1" vertex="1">
          <mxGeometry x="390" y="2842" width="40" height="30" as="geometry" />
        </mxCell>
        <mxCell id="-niPyfAAyTAKl9RtmtWB-115" value="" style="endArrow=classic;html=1;rounded=0;" parent="1" edge="1">
          <mxGeometry width="50" height="50" relative="1" as="geometry">
            <mxPoint x="470" y="2774" as="sourcePoint" />
            <mxPoint x="460" y="3034" as="targetPoint" />
            <Array as="points">
              <mxPoint x="520" y="2774" />
              <mxPoint x="520" y="3034" />
            </Array>
          </mxGeometry>
        </mxCell>
        <mxCell id="-niPyfAAyTAKl9RtmtWB-116" value="No" style="text;html=1;align=center;verticalAlign=middle;resizable=0;points=[];autosize=1;strokeColor=none;fillColor=none;" parent="1" vertex="1">
          <mxGeometry x="470" y="2772" width="40" height="30" as="geometry" />
        </mxCell>
        <mxCell id="-niPyfAAyTAKl9RtmtWB-117" value="" style="endArrow=classic;html=1;rounded=0;" parent="1" edge="1">
          <mxGeometry width="50" height="50" relative="1" as="geometry">
            <mxPoint x="385" y="2964" as="sourcePoint" />
            <mxPoint x="385" y="2984" as="targetPoint" />
          </mxGeometry>
        </mxCell>
        <mxCell id="-niPyfAAyTAKl9RtmtWB-118" value="" style="endArrow=classic;html=1;rounded=0;" parent="1" edge="1">
          <mxGeometry width="50" height="50" relative="1" as="geometry">
            <mxPoint x="385.64" y="2684" as="sourcePoint" />
            <mxPoint x="386" y="2704" as="targetPoint" />
          </mxGeometry>
        </mxCell>
        <mxCell id="-niPyfAAyTAKl9RtmtWB-119" value="" style="endArrow=classic;html=1;rounded=0;" parent="1" edge="1">
          <mxGeometry width="50" height="50" relative="1" as="geometry">
            <mxPoint x="383.65000000000003" y="2153" as="sourcePoint" />
            <mxPoint x="384" y="2173" as="targetPoint" />
          </mxGeometry>
        </mxCell>
        <mxCell id="-niPyfAAyTAKl9RtmtWB-121" value="" style="endArrow=classic;html=1;rounded=0;" parent="1" edge="1">
          <mxGeometry width="50" height="50" relative="1" as="geometry">
            <mxPoint x="383.39" y="2284" as="sourcePoint" />
            <mxPoint x="383" y="2304" as="targetPoint" />
          </mxGeometry>
        </mxCell>
        <mxCell id="-niPyfAAyTAKl9RtmtWB-122" value="" style="endArrow=classic;html=1;rounded=0;" parent="1" edge="1">
          <mxGeometry width="50" height="50" relative="1" as="geometry">
            <mxPoint x="383.49" y="2384" as="sourcePoint" />
            <mxPoint x="383" y="2404" as="targetPoint" />
          </mxGeometry>
        </mxCell>
        <mxCell id="-niPyfAAyTAKl9RtmtWB-123" value="" style="endArrow=classic;html=1;rounded=0;" parent="1" edge="1">
          <mxGeometry width="50" height="50" relative="1" as="geometry">
            <mxPoint x="383.39" y="2484" as="sourcePoint" />
            <mxPoint x="383" y="2504" as="targetPoint" />
          </mxGeometry>
        </mxCell>
        <mxCell id="-niPyfAAyTAKl9RtmtWB-124" value="" style="endArrow=classic;html=1;rounded=0;" parent="1" edge="1">
          <mxGeometry width="50" height="50" relative="1" as="geometry">
            <mxPoint x="385.79" y="2584" as="sourcePoint" />
            <mxPoint x="386.04" y="2604" as="targetPoint" />
          </mxGeometry>
        </mxCell>
        <mxCell id="xW6wz7EM7G0DN5Sp3qfy-2" value="" style="endArrow=classic;html=1;rounded=0;" parent="1" edge="1">
          <mxGeometry width="50" height="50" relative="1" as="geometry">
            <mxPoint x="321" y="610" as="sourcePoint" />
            <mxPoint x="191" y="500" as="targetPoint" />
            <Array as="points">
              <mxPoint x="191" y="610" />
            </Array>
          </mxGeometry>
        </mxCell>
        <mxCell id="xW6wz7EM7G0DN5Sp3qfy-3" value="&lt;span style=&quot;caret-color: rgba(0, 0, 0, 0);&quot;&gt;Admin confirmed or declined booking request?&lt;/span&gt;" style="rhombus;whiteSpace=wrap;html=1;" parent="1" vertex="1">
          <mxGeometry x="330" y="920" width="140" height="130" as="geometry" />
        </mxCell>
        <mxCell id="xW6wz7EM7G0DN5Sp3qfy-4" value="" style="endArrow=classic;html=1;rounded=0;" parent="1" edge="1">
          <mxGeometry width="50" height="50" relative="1" as="geometry">
            <mxPoint x="321" y="980" as="sourcePoint" />
            <mxPoint x="151" y="510" as="targetPoint" />
            <Array as="points">
              <mxPoint x="151" y="980" />
            </Array>
          </mxGeometry>
        </mxCell>
        <mxCell id="xW6wz7EM7G0DN5Sp3qfy-7" value="" style="endArrow=classic;html=1;rounded=0;" parent="1" edge="1">
          <mxGeometry width="50" height="50" relative="1" as="geometry">
            <mxPoint x="130" y="1730" as="sourcePoint" />
            <mxPoint x="130" y="500" as="targetPoint" />
            <Array as="points">
              <mxPoint x="130" y="1240" />
              <mxPoint x="130" y="680" />
            </Array>
          </mxGeometry>
        </mxCell>
        <mxCell id="lb35rWuwK0odvsZkCR3w-10" value="&lt;span style=&quot;caret-color: rgba(0, 0, 0, 0);&quot;&gt;System prompts to reschedule booking&lt;/span&gt;" style="rounded=0;whiteSpace=wrap;html=1;" vertex="1" parent="1">
          <mxGeometry x="110" y="1735.5" width="120" height="60" as="geometry" />
        </mxCell>
        <mxCell id="lb35rWuwK0odvsZkCR3w-11" value="No" style="text;html=1;align=center;verticalAlign=middle;resizable=0;points=[];autosize=1;strokeColor=none;fillColor=none;" vertex="1" parent="1">
          <mxGeometry x="260" y="1738" width="40" height="30" as="geometry" />
        </mxCell>
      </root>
    </mxGraphModel>
  </diagram>
</mxfile>
